<?xml version="1.0" encoding="utf-8"?>
<!-- Generator: Adobe Illustrator 18.0.0, SVG Export Plug-In . SVG Version: 6.00 Build 0)  -->
<!DOCTYPE svg PUBLIC "-//W3C//DTD SVG 1.1//EN" "http://www.w3.org/Graphics/SVG/1.1/DTD/svg11.dtd">
<svg version="1.1" id="Layer_1" xmlns="http://www.w3.org/2000/svg" xmlns:xlink="http://www.w3.org/1999/xlink" x="0px" y="0px"
	 viewBox="0 0 150 44" enable-background="new 0 0 150 44" xml:space="preserve">
<g id="XMLID_3_">
	<path id="XMLID_91_" fill="#009789" d="M97.8,39.3c-0.6,0-1.5-0.1-2-0.2c-0.1,0-0.2-0.1-0.2-0.3v-0.9c0-0.1,0.1-0.2,0.2-0.2
		c0,0,0,0,0,0c0.6,0.1,1.5,0.2,1.9,0.2c0.5,0,0.7-0.1,0.7-0.4c0-0.2-0.1-0.3-0.4-0.5l-1.5-0.8c-0.6-0.4-1-0.9-1-1.7
		c0-1.1,0.8-1.7,2.3-1.7c0.9,0,1.4,0.1,2,0.3c0.1,0,0.2,0.1,0.2,0.3v0.9c0,0.1-0.1,0.2-0.2,0.2c0,0,0,0,0,0c-0.3,0-1.3-0.1-1.9-0.1
		c-0.4,0-0.6,0.1-0.6,0.3c0,0.2,0.1,0.3,0.3,0.4l1.4,0.8c0.9,0.5,1.1,1.1,1.1,1.7C100.2,38.5,99.4,39.3,97.8,39.3z"/>
	<path id="XMLID_89_" fill="#009789" d="M10,6.7H5.4C4.3,6.7,4,7.1,4,8.2v2h5.8c0.2,0,0.4,0.2,0.4,0.4v2.1c0,0.2-0.2,0.4-0.4,0.4H4
		v6.5c0,0.2-0.2,0.4-0.4,0.4H0.6c-0.2,0-0.4-0.2-0.4-0.4V8.2c0-4.1,2.6-4.8,5.5-4.8C8,3.4,9.2,3.6,10,3.7c0.3,0,0.4,0.2,0.4,0.4v2.1
		C10.4,6.5,10.2,6.7,10,6.7z"/>
	<path id="XMLID_87_" fill="#009789" d="M28.9,10.3c-0.7,0-1.5,0-2,0.1v9.4c0,0.2-0.2,0.5-0.4,0.5h-2.7c-0.2,0-0.5-0.2-0.5-0.5V8.6
		c0-0.3,0.2-0.5,0.7-0.7c1.4-0.5,2.8-0.7,5-0.7c0.3,0,0.6,0.1,0.6,0.4v2.2C29.5,10.1,29.4,10.3,28.9,10.3z"/>
	<path id="XMLID_84_" fill="#009789" d="M40.2,15h-7.2v0c0,1.3,0.5,2.4,2.3,2.4c1.4,0,3.4-0.1,4.3-0.2c0,0,0,0,0.1,0
		c0.2,0,0.4,0.1,0.4,0.4v1.7c0,0.4-0.1,0.5-0.5,0.6c-1.4,0.4-2.6,0.5-4.6,0.5c-2.7,0-5.6-1.4-5.6-5.8v-1.6c0-3.6,2.1-5.9,5.7-5.9
		c3.7,0,5.5,2.5,5.5,5.9v1.3C40.7,14.8,40.5,15,40.2,15z M37.2,12.7c0-1.7-0.8-2.5-2-2.5c-1.2,0-2.1,0.9-2.1,2.5v0.1L37.2,12.7
		L37.2,12.7z"/>
	<path id="XMLID_82_" fill="#009789" d="M52.2,20.3h-2.8c-0.2,0-0.4-0.2-0.4-0.5v-7.9c0-1-0.2-1.7-1.3-1.7h-1.1
		c-1.2,0-1.3,0.7-1.3,1.7v7.9c0,0.2-0.2,0.5-0.4,0.5H42c-0.2,0-0.4-0.2-0.4-0.5v-7.9c0-3.1,1.7-4.7,5-4.7h1.1c3.2,0,5,1.6,5,4.7v7.9
		C52.6,20.1,52.4,20.3,52.2,20.3z"/>
	<path id="XMLID_68_" fill="#009789" d="M57.4,6h-2.9c-0.2,0-0.4-0.2-0.4-0.4V3.4c0-0.2,0.2-0.4,0.4-0.4h2.9c0.2,0,0.4,0.2,0.4,0.4
		v2.1C57.9,5.8,57.7,6,57.4,6z M57.4,20.3h-2.7c-0.2,0-0.4-0.2-0.4-0.4v-12c0-0.2,0.2-0.4,0.4-0.4h2.7c0.2,0,0.4,0.2,0.4,0.4v12
		C57.8,20.1,57.6,20.3,57.4,20.3z"/>
	<path id="XMLID_66_" fill="#009789" d="M70,20.3h-2.8c-0.2,0-0.4-0.2-0.4-0.5v-7.9c0-1-0.2-1.7-1.3-1.7h-1.1
		c-1.2,0-1.3,0.7-1.3,1.7v7.9c0,0.2-0.2,0.5-0.4,0.5h-2.8c-0.2,0-0.4-0.2-0.4-0.5v-7.9c0-3.1,1.7-4.7,5-4.7h1.1c3.2,0,5,1.6,5,4.7
		v7.9C70.4,20.1,70.2,20.3,70,20.3z"/>
	<path id="XMLID_63_" fill="#009789" d="M77.1,24.8c-1.9,0-3.5-0.3-4.3-0.6c-0.3-0.1-0.4-0.2-0.4-0.6v-1.5c0-0.2,0.2-0.4,0.4-0.4
		c0,0,0,0,0,0c1,0.1,3.2,0.3,4.3,0.3c1.5,0,1.9-0.4,1.9-1.7v-0.2c-0.4,0.1-1.4,0.2-1.9,0.2c-3.8,0-5.6-2.2-5.6-5.8V13
		c0-3.6,2-5.7,5.6-5.7c1.7,0,3.5,0.2,4.8,0.6c0.6,0.2,0.7,0.3,0.7,0.6v11.9C82.5,23.6,80.8,24.8,77.1,24.8z M79,10.4
		c-0.4-0.1-1.1-0.2-1.9-0.2c-1.6,0-2,1.1-2,2.7v1.5c0,1.6,0.4,2.8,2,2.8c0.5,0,1.3-0.1,1.9-0.1V10.4z"/>
	<path id="XMLID_61_" fill="#009789" d="M88.2,20.5c-1.2,0-2.9-0.2-4.1-0.5c-0.3-0.1-0.4-0.2-0.4-0.5v-1.8c0-0.2,0.2-0.4,0.4-0.4
		c0,0,0.1,0,0.1,0c1.2,0.2,3.1,0.3,3.8,0.3c1.1,0,1.3-0.3,1.3-0.9c0-0.3-0.2-0.6-0.8-0.9L85.6,14c-1.3-0.7-2-1.9-2-3.3
		c0-2.3,1.5-3.5,4.6-3.5c1.8,0,2.8,0.2,4,0.5c0.3,0.1,0.4,0.2,0.4,0.5v1.8c0,0.3-0.1,0.4-0.4,0.4c0,0-0.1,0-0.1,0
		c-0.7-0.1-2.6-0.3-3.7-0.3c-0.9,0-1.2,0.1-1.2,0.7c0,0.3,0.2,0.5,0.7,0.8l2.8,1.6c1.9,1.1,2.3,2.2,2.3,3.5
		C93,18.8,91.5,20.5,88.2,20.5z"/>
	<path id="XMLID_57_" fill="#009789" d="M3.4,24.9H0.4c-0.2,0-0.4-0.2-0.4-0.4v-2.1c0-0.2,0.2-0.4,0.4-0.4h2.9
		c0.2,0,0.4,0.2,0.4,0.4v2.1C3.8,24.7,3.6,24.9,3.4,24.9z M3.3,39.2H0.5c-0.2,0-0.4-0.2-0.4-0.4v-12c0-0.2,0.2-0.4,0.4-0.4h2.7
		c0.2,0,0.4,0.2,0.4,0.4v12C3.7,39,3.5,39.2,3.3,39.2z"/>
	<path id="XMLID_55_" fill="#009789" d="M15.6,39.2h-2.8c-0.2,0-0.4-0.2-0.4-0.5v-7.9c0-1-0.2-1.7-1.3-1.7H10
		c-1.2,0-1.3,0.7-1.3,1.7v7.9c0,0.2-0.2,0.5-0.4,0.5H5.5C5.2,39.2,5,39,5,38.7v-7.9c0-3.1,1.7-4.7,5-4.7h1.1c3.2,0,5,1.6,5,4.7v7.9
		C16.1,39,15.9,39.2,15.6,39.2z"/>
	<path id="XMLID_53_" fill="#009789" d="M21.7,39.4c-1.2,0-2.9-0.2-4.1-0.5c-0.3-0.1-0.4-0.2-0.4-0.5v-1.8c0-0.2,0.2-0.4,0.4-0.4
		c0,0,0.1,0,0.1,0c1.2,0.2,3.1,0.3,3.8,0.3c1.1,0,1.3-0.3,1.3-0.9c0-0.3-0.2-0.6-0.8-0.9L19.1,33c-1.3-0.7-2-1.9-2-3.3
		c0-2.3,1.5-3.5,4.6-3.5c1.8,0,2.8,0.2,4,0.5c0.3,0.1,0.4,0.2,0.4,0.5V29c0,0.3-0.1,0.4-0.4,0.4c0,0-0.1,0-0.1,0
		c-0.7-0.1-2.6-0.3-3.7-0.3c-0.9,0-1.2,0.1-1.2,0.7c0,0.3,0.2,0.5,0.7,0.8l2.8,1.6c1.9,1.1,2.3,2.2,2.3,3.5
		C26.5,37.7,25,39.4,21.7,39.4z"/>
	<path id="XMLID_50_" fill="#009789" d="M37.5,38.8c-1.3,0.3-3,0.6-4.8,0.6c-3.6,0-5.6-2.1-5.6-5.7v-1.7c0-3.6,2-5.7,5.6-5.7
		c1.7,0,3.5,0.3,4.8,0.6c0.6,0.1,0.7,0.3,0.7,0.7v10.8C38.2,38.5,38.1,38.7,37.5,38.8z M34.6,29.3c-0.4-0.1-1.1-0.1-1.8-0.1
		c-1.6,0-2,1.1-2,2.7v1.7c0,1.6,0.4,2.8,2,2.8c0.7,0,1.4-0.1,1.8-0.1V29.3z"/>
	<path id="XMLID_48_" fill="#009789" d="M56.1,39.2h-2.7c-0.2,0-0.4-0.2-0.4-0.5v-7.9c0-1.3-0.4-1.6-1.3-1.6h-0.4
		c-1.1,0-1.3,0.7-1.3,1.6v7.9c0,0.2-0.2,0.5-0.4,0.5h-2.8c-0.2,0-0.4-0.2-0.4-0.5v-7.9c0-1-0.1-1.6-1.3-1.6h-0.4
		c-0.9,0-1.3,0.4-1.3,1.6v7.9c0,0.2-0.2,0.5-0.4,0.5h-2.7c-0.2,0-0.4-0.2-0.4-0.5v-7.9c0-3.2,1.8-4.6,4.9-4.6H45
		c1.3,0,2.3,0.4,3.1,1c0.7-0.6,1.7-1,3.1-1h0.4c3.1,0,5,1.5,5,4.6v7.9C56.5,39,56.3,39.2,56.1,39.2z"/>
	<path id="XMLID_46_" fill="#009789" d="M61.4,39.2h-2.7c-0.2,0-0.5-0.2-0.5-0.5V22.4c0-0.2,0.2-0.4,0.5-0.4h2.7
		c0.2,0,0.4,0.2,0.4,0.4v16.3C61.9,39,61.7,39.2,61.4,39.2z"/>
	<path id="XMLID_43_" fill="#009789" d="M66.8,24.9h-2.9c-0.2,0-0.4-0.2-0.4-0.4v-2.1c0-0.2,0.2-0.4,0.4-0.4h2.9
		c0.2,0,0.4,0.2,0.4,0.4v2.1C67.2,24.7,67,24.9,66.8,24.9z M66.7,39.2H64c-0.2,0-0.4-0.2-0.4-0.4v-12c0-0.2,0.2-0.4,0.4-0.4h2.7
		c0.2,0,0.4,0.2,0.4,0.4v12C67.2,39,66.9,39.2,66.7,39.2z"/>
	<path id="XMLID_41_" fill="#009789" d="M79.5,39.2h-2.8c-0.2,0-0.4-0.2-0.4-0.5v-7.9c0-1-0.2-1.7-1.3-1.7h-1.1
		c-1.2,0-1.3,0.7-1.3,1.7v7.9c0,0.2-0.2,0.5-0.4,0.5h-2.8c-0.2,0-0.4-0.2-0.4-0.5v-7.9c0-3.1,1.7-4.7,5-4.7H75c3.2,0,5,1.6,5,4.7
		v7.9C80,39,79.8,39.2,79.5,39.2z"/>
	<path id="XMLID_38_" fill="#009789" d="M86.9,43.7c-1.9,0-3.5-0.3-4.3-0.6c-0.3-0.1-0.4-0.2-0.4-0.6V41c0-0.2,0.2-0.4,0.4-0.4
		c0,0,0,0,0,0c1,0.1,3.2,0.3,4.3,0.3c1.5,0,1.9-0.4,1.9-1.7V39c-0.4,0.1-1.4,0.2-1.9,0.2c-3.8,0-5.6-2.2-5.6-5.8v-1.5
		c0-3.6,2-5.7,5.6-5.7c1.7,0,3.5,0.2,4.8,0.6c0.6,0.2,0.7,0.3,0.7,0.6v11.9C92.3,42.5,90.6,43.7,86.9,43.7z M88.8,29.3
		c-0.4-0.1-1.1-0.2-1.9-0.2c-1.6,0-2,1.1-2,2.7v1.5c0,1.6,0.4,2.8,2,2.8c0.5,0,1.3-0.1,1.9-0.1V29.3z"/>
	<path id="XMLID_36_" fill="#009789" d="M94.5,39.2h-1.3c-0.1,0-0.2-0.1-0.2-0.2v-1.4c0-0.1,0.1-0.2,0.2-0.2h1.3
		c0.1,0,0.2,0.1,0.2,0.2V39C94.7,39.1,94.6,39.2,94.5,39.2z"/>
	<g id="XMLID_26_">
		<path id="XMLID_32_" fill="#009789" d="M16.7,20.5c-3.6,0-5.6-2.3-5.6-5.8v-1.6c0-3.6,2-5.8,5.6-5.8c3.6,0,5.6,2.3,5.6,5.8v1.6
			C22.3,18.2,20.3,20.5,16.7,20.5z M18.7,13.1c0-1.8-0.7-2.7-2-2.7c-1.3,0-2,0.9-2,2.7v1.6c0,1.8,0.7,2.8,2,2.8c1.3,0,2-0.9,2-2.8
			V13.1z"/>
		<g id="XMLID_27_">
			<path id="XMLID_30_" fill="#009789" d="M16.3,6.7H15c-0.1,0-0.2-0.1-0.2-0.2V5.1c0-0.1,0.1-0.2,0.2-0.2h1.3
				c0.1,0,0.2,0.1,0.2,0.2v1.4C16.5,6.6,16.4,6.7,16.3,6.7z"/>
			<path id="XMLID_28_" fill="#009789" d="M18.8,6.7h-1.3c-0.1,0-0.2-0.1-0.2-0.2V5.1c0-0.1,0.1-0.2,0.2-0.2h1.3
				c0.1,0,0.2,0.1,0.2,0.2v1.4C19.1,6.6,19,6.7,18.8,6.7z"/>
		</g>
	</g>
	<path id="XMLID_23_" fill="#009789" d="M106,36.6h-3.6v0c0,0.6,0.3,1.2,1.2,1.2c0.7,0,1.7-0.1,2.2-0.1c0,0,0,0,0,0
		c0.1,0,0.2,0.1,0.2,0.2v0.9c0,0.2,0,0.3-0.2,0.3c-0.7,0.2-1.3,0.3-2.3,0.3c-1.4,0-2.8-0.7-2.8-2.9v-0.8c0-1.8,1.1-2.9,2.8-2.9
		c1.8,0,2.8,1.3,2.8,2.9v0.7C106.2,36.5,106.1,36.6,106,36.6z M104.4,35.4c0-0.8-0.4-1.2-1-1.2c-0.6,0-1,0.4-1,1.2v0L104.4,35.4
		L104.4,35.4z"/>
	<g id="XMLID_4_">
		<path id="XMLID_22_" fill="#009789" d="M117.9,12c0,0,6.2-5.2,6.2-5.3c3.7-3.6,8.9-4.8,13.5-2.8c3.6,1.6,5.7,4.4,6.5,8.1
			c0.5,2.4-0.1,3.3-1.2,5.5l3.8,6c2.1-3.2,3.6-7.2,3-11.1c-1.2-7.5-8-13.6-17.3-11.9c-2.7,0.5-5.2,1.6-7.4,3.4c0,0-7.2,6.8-7.2,6.8
			L117.9,12z"/>
		<path id="XMLID_21_" fill="#009789" d="M106.5,27.4l0.5-0.8c-1.6-1.4-2.8-3-3.6-4.9c-1.8-4.2-2-8.5,0.5-12.5
			c3.4-5.6,11-7.3,16.6-4.3l2.8-2.4c-6.6-4.4-15.5-3.1-20.2,3.2c-3.1,4.2-3.4,8.8-2,13.6C102.2,22.7,104.1,25.2,106.5,27.4z"/>
		<path id="XMLID_20_" fill="#009789" d="M129,10.6c-4.4,2-7.7,10.1-15.9,5.6c-0.1,0.2-0.3,0.3-0.4,0.5c2.9,3.4,8.6,2.3,16.6-1.8
			c3.5-0.4,8.3,5.3,12.6,9.3c0.9,0.8,1.1,1.7,0.6,2.6c-0.3,0.6-0.9,1-1.5,1.1l0.7,0.7c2.3-0.5,3.2-2.2,1.9-5.1
			C142.2,20.5,133.3,8.6,129,10.6z"/>
		<path id="XMLID_13_" fill="#009789" d="M110.7,30.5c-0.5-0.8-0.5-1.5,0-2.3c0.8-1.2,1.7-2.5,2.6-3.7c0.4-0.5,0.9-0.8,1.5-0.8
			c-0.2-0.2-0.4-0.3-0.7-0.4c-0.9-0.3-1.7-0.2-2.4,0.5c-1.1,1.2-2.2,2.4-3.2,3.6c-0.7,0.9-0.6,2.2,0.2,3c0.7,0.6,1.6,0.9,2.3,0.5
			C110.9,30.8,110.8,30.6,110.7,30.5z"/>
		<path id="XMLID_12_" fill="#009789" d="M115.5,34.9c-0.5-0.8-0.5-1.5,0-2.3c0.8-1.2,1.7-2.5,2.6-3.7c0.4-0.5,0.9-0.8,1.5-0.8
			c-0.2-0.2-0.4-0.3-0.7-0.4c-0.9-0.3-1.7-0.2-2.4,0.5c-1.1,1.2-2.2,2.4-3.2,3.6c-0.7,0.9-0.6,2.2,0.2,3c0.7,0.6,1.6,0.9,2.3,0.5
			C115.7,35.2,115.6,35.1,115.5,34.9z"/>
		<path id="XMLID_11_" fill="#009789" d="M119.5,38.9c-0.5-0.8-0.5-1.5,0-2.3c0.8-1.2,1.7-2.5,2.6-3.7c0.4-0.5,0.9-0.8,1.5-0.8
			c-0.2-0.2-0.4-0.3-0.7-0.4c-0.9-0.3-1.7-0.2-2.4,0.5c-1.1,1.2-2.2,2.4-3.2,3.6c-0.7,0.9-0.6,2.2,0.2,3c0.7,0.6,1.6,0.9,2.3,0.5
			C119.7,39.2,119.6,39.1,119.5,38.9z"/>
		<path id="XMLID_10_" fill="#009789" d="M135.8,34.1c-0.7-1.6-7.3-6-10.3-7.8l-0.3,0.3c2.5,2.5,5,5,7.5,7.5c0.6,0.6,0.9,1.2,0.7,2
			c-0.2,0.8-0.6,1.4-1.3,1.6c0,0-0.1,0-0.1,0l0.6,0.8C134.5,38,136.6,35.7,135.8,34.1z"/>
		<path id="XMLID_9_" fill="#009789" d="M140.5,28.5c-0.7-1.5-6.6-5.5-9.8-7.5l-0.4,0.4c2.4,2.3,4.7,4.7,7.1,7
			c0.6,0.6,0.9,1.2,0.7,2c-0.2,0.8-0.6,1.4-1.3,1.6c0,0-0.1,0-0.1,0l0.6,0.8C139.2,32.5,141.3,30.2,140.5,28.5z"/>
		<path id="XMLID_8_" fill="#009789" d="M124.4,43.4c-0.5-0.8-0.5-1.5,0-2.3c0.8-1.2,1.7-2.5,2.6-3.7c0.4-0.5,0.9-0.8,1.5-0.8
			c-0.2-0.2-0.4-0.3-0.7-0.4c-0.9-0.3-1.7-0.2-2.4,0.5c-1.1,1.2-2.2,2.4-3.2,3.6c-0.7,0.9-0.6,2.2,0.2,3c0.7,0.6,1.6,0.9,2.3,0.5
			C124.6,43.7,124.5,43.6,124.4,43.4z"/>
	</g>
</g>
</svg>
