<?xml version="1.0" encoding="utf-8"?>
<!-- Generator: Adobe Illustrator 16.0.4, SVG Export Plug-In . SVG Version: 6.00 Build 0)  -->
<!DOCTYPE svg PUBLIC "-//W3C//DTD SVG 1.1//EN" "http://www.w3.org/Graphics/SVG/1.1/DTD/svg11.dtd">
<svg version="1.1" id="Layer_1" xmlns="http://www.w3.org/2000/svg" xmlns:xlink="http://www.w3.org/1999/xlink" x="0px" y="0px"
	 width="200px" height="44px" viewBox="0 0 200 44" enable-background="new 0 0 200 44" xml:space="preserve">
<g>
	<g>
		<path fill="#FFFFFF" d="M35.1,31.7c-0.1,0-0.1,0-0.2,0c0,0,1,0.1,1,0.5c0,0,0,0,0,0.1c-0.1,0.2-0.6,0.9-2.5,1.6l-1,0.3
			C30.6,34.8,29,35,26.6,35c-1.9,0-3.6-0.2-4.5-0.4l-0.4-0.1c-0.1,0-0.2,0-0.3-0.1c-0.4-0.1-0.8-0.2-1.1-0.3
			c-0.7-0.3-0.8-0.7-0.8-0.8c0-0.2,0.5-0.7,0.5-0.7l-0.5-0.1c-0.4,0.2-0.6,0.6-0.6,0.6c-0.1,0.2-0.1,0.5,0,0.7c0,0,0.1,0.2,0.2,0.4
			c0.7,1.1,4.1,2.4,7.8,2.5c2.9,0,6.1-0.6,8.2-2.1h0c0.9-0.6,1.3-1.2,1.4-1.4c0.1-0.2,0.3-0.5,0.3-0.8C36.6,32,36.1,31.7,35.1,31.7z
			 M39,23.7c-0.1,0-0.1,0.1-0.2,0.1c0,0,1.2-0.2,1.3,0.4c0,0,0,0.1,0,0.1c-0.1,0.3-0.5,0.7-1.1,1.2l-0.1,0.1c-3.8,3-9.9,4.6-17,4.6
			h0c-1.5,0-2.9-0.1-4.2-0.2c-0.4-0.1-0.8-0.1-1.2-0.2c0,0-0.1,0-0.2,0c-0.6-0.1-1-0.5-1-0.5l0,0c0,0-0.1-0.2-0.1-0.3
			c0-0.2,0.2-0.4,0.5-0.7l0.1-0.1L15,28c-0.2,0.2-0.5,0.4-0.6,0.7c-0.1,0.2-0.1,0.4-0.1,0.6c0,0,0,0.2,0.2,0.4l0,0c0,0,0,0,0.1,0.1
			c0.1,0.1,0.2,0.2,0.3,0.3c1.7,1.4,5,2.2,8.9,2.2c3.4,0,7.9-0.7,11.5-2.3l0.1,0c0.2-0.1,0.4-0.2,0.6-0.3c0,0,0.1-0.1,0.2-0.1
			c0.1-0.1,0.2-0.1,0.4-0.2c3.9-2.3,4.1-3.6,4.2-3.8c0.1-0.3,0.3-0.7,0.2-1.3C40.8,23.7,40.2,23.4,39,23.7z M44.9,0.9
			c0,0-0.4-0.1-0.7-0.2c-0.2,0-0.4-0.1-0.7-0.1c0,0-0.1,0-0.1,0c0,0,0,0,0,0c-1-0.1-2.3-0.2-3.7-0.2c-1.1,0-2.2,0.1-3.5,0.1
			c-5.6,0.4-16,2.8-22.6,5.6c-4.6,2-7.1,3.9-7.8,4.5c-0.7,0.6-1.3,1.8-1.3,1.8c0.2-0.1,0.5-0.3,0.8-0.4c2.2-2.5,8.3-4.9,8.3-4.9
			c6.3-2.5,15.8-5,20.9-5c2.3,0,4.3,0.3,6,0.7c1,0.3,1.3,0.8,1.4,0.8c1.2,1.4-1.3,3.5-1.3,3.5C32.6,14,18.6,19.4,9.9,19.4
			c-1.3,0-1.8-0.1-2.8-0.4c-1-0.3-1.3-0.8-1.4-1.2c-0.4-1.5,1.1-2.9,1.7-3.3c0.7-0.5,2.1-1.5,6.2-2.9c0,0,1.3-0.5,4-1.2
			C24.2,8.7,32,8.9,32,8.9c0,0,0.3,0,0.4-0.2c0-0.2-0.3-0.3-0.3-0.3c-7.2-0.8-13.5,0.3-13.5,0.3c-6.1,1.2-10.3,3.3-10.3,3.3
			c-5.9,2.9-5.8,6.4-5.8,6.5c0.1,1.7,0.7,2.2,2.1,3.1c1.4,1,3.6,1.6,6.5,1.6c0.3,0,0.6,0,0.9,0c3.3,0,7.2-0.6,11.3-1.8
			c4.8-1.3,8.9-3.2,11.5-4.5c1.6-0.8,3-1.7,4.2-2.6v0c6.1-4.2,8.2-7.2,8.4-9.5c0.1-0.6,0-1.9-0.6-2.6C46.4,1.5,46.2,1.3,44.9,0.9z
			 M22.1,38.1L21.9,38c1.5,2.8,3,11,11-0.1C27.5,40.2,24,38.7,22.1,38.1z M42,13.5l-0.9,0.6c0.7,0,1.7,0.2,1.8,0.9
			c0,0.1,0,0.1,0,0.2c-0.1,0.3-1.6,1.8-2.9,2.6c-4.2,3-14.8,7.3-24.1,7.8c0,0,0.1,0,0.1,0c-2.9,0.2-5.3-0.5-5.9-1
			c-0.4-0.3-0.2-0.7,0-1l-0.5,0c-0.2,0.1-0.4,0.4-0.4,0.7c0,0.1,0,0.2,0,0.3c0,0,0,0,0,0c0,0,0,0,0,0.1c0,0.1,0.1,0.3,0.2,0.4
			c1.2,1.6,4.2,2.1,6.1,2.3c0.1,0,0.1,0,0.2,0l0.5,0c1.3,0.1,2.9,0.1,2.9,0.1h0c8.5-0.1,19-4.1,23.3-8.1c0,0,0,0,0,0
			c0,0,2.3-1.7,2.2-4.1C44.5,14.6,43.8,13.4,42,13.5z M61.5,28.7c-2.1,0-3.6-1.8-3.6-4.1v0c0-2.2,1.5-4,3.6-4c1.5,0,2.5,0.7,3.3,1.8
			l3.2-2.5c-1.4-1.9-3.4-3.2-6.5-3.2c-4.6,0-8,3.5-8,7.9v0c0,4.5,3.5,7.9,7.9,7.9c3.4,0,5.3-1.5,6.7-3.4l-3.2-2.3
			C64,28,63,28.7,61.5,28.7z M76.7,20.2c-1.7,0-2.8,0.9-3.5,1.9v-5.7H69v15.9h4.1v-6.4c0-1.3,0.7-2,1.7-2c1,0,1.7,0.7,1.7,2v6.4h4.1
			v-7.7C80.7,21.9,79.2,20.2,76.7,20.2z M87.6,20.3c-2,0-3.4,0.4-4.8,0.9l0.8,2.9c1-0.4,2-0.7,3.2-0.7c1.6,0,2.4,0.7,2.4,1.9v0.2
			c-0.7-0.2-1.7-0.5-2.8-0.5c-2.8,0-4.6,1.3-4.6,3.7v0c0,2.4,1.7,3.6,4,3.6c1.5,0,2.7-0.6,3.5-1.5v1.2h4.1v-6.8
			c0-1.7-0.4-2.9-1.3-3.7C91.1,20.8,89.7,20.3,87.6,20.3z M89.3,28c0,1.2-0.8,1.9-2,1.9c-0.8,0-1.5-0.5-1.5-1.3v0
			c0-0.9,0.7-1.5,1.9-1.5c0.6,0,1.2,0.1,1.6,0.3V28z M99.2,22.8v-2.4H95v11.8h4.1v-3.7c0-2.7,1.2-4,3.4-4h0.3v-4.4
			C100.9,20.2,99.9,21.2,99.2,22.8z M104.4,32.3h4.1V20.5h-4.1V32.3z M104.4,19.4h4.3v-3h-4.3V19.4z M115.8,17.5h-4.1v3h-1.4v3.3
			h1.4v4.8c0,2.8,1.5,3.9,4,3.9c1.2,0,2.1-0.3,2.9-0.7v-3.2c-0.5,0.2-1,0.4-1.6,0.4c-0.8,0-1.1-0.3-1.1-1.2v-4h2.7v-3.3h-2.7V17.5z
			 M125.5,27.6l-2.4-7.1h-4.3l4.6,11.6c-0.3,0.4-0.5,0.5-1,0.5c-0.5,0-1.2-0.2-1.8-0.6l-1.3,2.9c1.1,0.6,2.3,1,3.8,1
			c2.4,0,3.5-1.1,4.5-3.8l4.3-11.5h-4.2L125.5,27.6z M140.2,22.8c-2.1-0.5-2.6-0.8-2.6-1.5v0c0-0.5,0.5-1,1.5-1
			c1.3,0,2.9,0.5,4.3,1.5l2.1-3c-1.7-1.3-3.7-2-6.3-2c-3.7,0-5.9,2-5.9,4.9v0c0,3.1,2.5,4,5.7,4.8c2.1,0.5,2.6,0.8,2.6,1.5v0
			c0,0.7-0.6,1-1.7,1c-1.8,0-3.4-0.6-4.9-1.8l-2.4,2.8c1.9,1.7,4.4,2.5,7.1,2.5c3.7,0,6.2-1.9,6.2-5v0
			C145.8,24.7,143.7,23.5,140.2,22.8z M151.8,17.5h-4.1v3h-1.4v3.3h1.4v4.8c0,2.8,1.5,3.9,4,3.9c1.2,0,2.1-0.3,2.9-0.7v-3.2
			c-0.5,0.2-1,0.4-1.6,0.4c-0.8,0-1.1-0.3-1.1-1.2v-4h2.7v-3.3h-2.7V17.5z M161.6,20.2c-3.8,0-6.5,2.8-6.5,6.2v0
			c0,3.4,2.7,6.1,6.5,6.1c3.8,0,6.5-2.8,6.5-6.2v0C168.1,23,165.4,20.2,161.6,20.2z M164.1,26.4c0,1.4-1,2.6-2.5,2.6
			c-1.5,0-2.5-1.2-2.5-2.7v0c0-1.4,1-2.6,2.5-2.6C163,23.7,164.1,24.9,164.1,26.4L164.1,26.4z M173.4,22.8v-2.4h-4.1v11.8h4.1v-3.7
			c0-2.7,1.2-4,3.4-4h0.3v-4.4C175.1,20.2,174,21.2,173.4,22.8z M193.4,20.2c-1.7,0-2.9,0.7-3.9,1.9c-0.6-1.2-1.8-1.9-3.4-1.9
			c-1.7,0-2.7,0.9-3.5,1.9v-1.6h-4.1v11.8h4.1v-6.4c0-1.3,0.7-2,1.7-2c1,0,1.6,0.7,1.6,2v6.4h4.1v-6.4c0-1.3,0.7-2,1.7-2
			c1,0,1.6,0.7,1.6,2v6.4h4.1v-7.7C197.4,21.8,195.9,20.2,193.4,20.2z"/>
	</g>
</g>
<g>
</g>
<g>
</g>
<g>
</g>
<g>
</g>
<g>
</g>
<g>
</g>
</svg>
